<svg xmlns="http://www.w3.org/2000/svg" viewBox="0 0 1200 800" role="img" aria-labelledby="title desc">
  <title id="title">Community parade participation</title>
  <desc id="desc">An illustration of adults with disabilities participating in a local parade with neighbors.</desc>
  <defs>
    <linearGradient id="bg" x1="0" y1="0" x2="0" y2="1">
      <stop offset="0%" stop-color="#fb7185"/>
      <stop offset="100%" stop-color="#4338ca"/>
    </linearGradient>
  </defs>

  <rect width="1200" height="800" fill="url(#bg)"/>
  <rect x="0" y="510" width="1200" height="290" fill="#0f172a" opacity="0.45"/>

  <rect x="180" y="170" width="840" height="420" rx="24" fill="#ffffff" opacity="0.88"/>
  <rect x="250" y="230" width="700" height="95" rx="18" fill="#f97316"/>
  <text x="600" y="292" text-anchor="middle" font-family="Segoe UI, Tahoma, sans-serif" font-size="54" font-weight="800" fill="#fff7ed">SEBEKA PARADE</text>

  <circle cx="360" cy="430" r="34" fill="#f8fafc"/>
  <rect x="328" y="466" width="66" height="92" rx="20" fill="#0ea5e9"/>

  <circle cx="525" cy="425" r="34" fill="#f8fafc"/>
  <rect x="494" y="462" width="62" height="88" rx="20" fill="#22c55e"/>
  <circle cx="488" cy="560" r="35" fill="#475569"/>
  <circle cx="582" cy="560" r="35" fill="#475569"/>
  <rect x="528" y="539" width="44" height="11" rx="6" fill="#475569"/>

  <circle cx="760" cy="430" r="34" fill="#f8fafc"/>
  <rect x="728" y="466" width="66" height="92" rx="20" fill="#a855f7"/>
  <rect x="790" y="480" width="16" height="110" rx="8" fill="#334155"/>
  <path d="M806 486 C842 470, 884 486, 902 512 C876 524, 840 522, 806 508 Z" fill="#facc15"/>

  <path d="M280 380 C350 338, 450 338, 510 380" fill="none" stroke="#1e293b" stroke-width="12" stroke-linecap="round" opacity="0.65"/>
  <path d="M680 380 C750 338, 850 338, 910 380" fill="none" stroke="#1e293b" stroke-width="12" stroke-linecap="round" opacity="0.65"/>
</svg>
