<svg xmlns="http://www.w3.org/2000/svg" viewBox="0 0 880 660" role="img" aria-label="Custom buttons, pins, and napkins graphic">
  <defs>
    <linearGradient id="sky" x1="0" y1="0" x2="1" y2="1">
      <stop offset="0%" stop-color="#dff7fb"/>
      <stop offset="55%" stop-color="#a7f3d0"/>
      <stop offset="100%" stop-color="#bfdbfe"/>
    </linearGradient>
    <linearGradient id="lake" x1="0" y1="0" x2="0" y2="1">
      <stop offset="0%" stop-color="#38bdf8"/>
      <stop offset="100%" stop-color="#1d4f73"/>
    </linearGradient>
    <linearGradient id="buttonA" x1="0" y1="0" x2="1" y2="1">
      <stop offset="0%" stop-color="#0f766e"/>
      <stop offset="100%" stop-color="#2563eb"/>
    </linearGradient>
    <linearGradient id="buttonB" x1="0" y1="0" x2="1" y2="1">
      <stop offset="0%" stop-color="#16a34a"/>
      <stop offset="100%" stop-color="#14b8a6"/>
    </linearGradient>
    <linearGradient id="buttonC" x1="0" y1="0" x2="1" y2="1">
      <stop offset="0%" stop-color="#1d4ed8"/>
      <stop offset="100%" stop-color="#38bdf8"/>
    </linearGradient>
    <filter id="shadow" x="-20%" y="-20%" width="140%" height="140%">
      <feDropShadow dx="0" dy="16" stdDeviation="18" flood-color="#0f172a" flood-opacity="0.18"/>
    </filter>
  </defs>

  <rect width="880" height="660" rx="42" fill="url(#sky)"/>
  <path d="M0 458 C118 392 230 398 334 440 C424 476 520 474 636 430 C724 398 794 398 880 436 L880 660 L0 660 Z" fill="url(#lake)" opacity="0.35"/>

  <g fill="#14532d" opacity="0.95">
    <path d="M44 466 l20 -34 l12 20 l-7 -1 l18 27 h-17 l7 25 h-23 l7 -25 h-17 l18 -27 l-7 1 z"/>
    <path d="M94 470 l24 -40 l14 24 l-8 -1 l20 29 h-19 l8 28 h-26 l8 -28 h-19 l20 -29 l-8 1 z"/>
    <path d="M790 470 l24 -40 l14 24 l-8 -1 l20 29 h-19 l8 28 h-26 l8 -28 h-19 l20 -29 l-8 1 z"/>
    <path d="M836 462 l18 -30 l11 18 l-6 -1 l15 23 h-14 l6 20 h-20 l6 -20 h-14 l15 -23 l-6 1 z"/>
  </g>

  <g filter="url(#shadow)">
    <g transform="translate(222 238)">
      <circle r="126" fill="url(#buttonA)"/>
      <circle r="97" fill="#effdfb"/>
      <text x="0" y="-12" text-anchor="middle" font-family="Segoe UI, Arial, sans-serif" font-size="28" font-weight="800" fill="#0f766e">TEAM</text>
      <text x="0" y="22" text-anchor="middle" font-family="Segoe UI, Arial, sans-serif" font-size="28" font-weight="800" fill="#0f766e">BUTTONS</text>
      <rect x="-52" y="44" width="104" height="24" rx="12" fill="#0f766e"/>
      <text x="0" y="61" text-anchor="middle" font-family="Segoe UI, Arial, sans-serif" font-size="13" font-weight="700" fill="#fff">CUSTOM</text>
    </g>

    <g transform="translate(434 198)">
      <circle r="102" fill="url(#buttonB)"/>
      <circle r="78" fill="#f0fdf4"/>
      <text x="0" y="-6" text-anchor="middle" font-family="Segoe UI, Arial, sans-serif" font-size="22" font-weight="800" fill="#166534">VOTE</text>
      <text x="0" y="24" text-anchor="middle" font-family="Segoe UI, Arial, sans-serif" font-size="20" font-weight="700" fill="#166534">LOCAL</text>
    </g>

    <g transform="translate(626 252)">
      <circle r="118" fill="url(#buttonC)"/>
      <circle r="90" fill="#eff6ff"/>
      <text x="0" y="-8" text-anchor="middle" font-family="Segoe UI, Arial, sans-serif" font-size="24" font-weight="800" fill="#1d4ed8">GO</text>
      <text x="0" y="24" text-anchor="middle" font-family="Segoe UI, Arial, sans-serif" font-size="24" font-weight="800" fill="#1d4ed8">TROJANS</text>
    </g>

    <g transform="translate(306 450) rotate(-7)">
      <rect x="-146" y="-92" width="292" height="184" rx="18" fill="#fffdf8" stroke="#67e8f9" stroke-width="4"/>
      <text x="0" y="-10" text-anchor="middle" font-family="Georgia, Times New Roman, serif" font-size="30" font-weight="700" fill="#0f766e">Emma &amp; Luke</text>
      <text x="0" y="28" text-anchor="middle" font-family="Segoe UI, Arial, sans-serif" font-size="18" font-weight="700" fill="#1d4f73">Wedding Celebration</text>
      <text x="0" y="58" text-anchor="middle" font-family="Segoe UI, Arial, sans-serif" font-size="16" font-weight="600" fill="#0f766e">Custom Napkins</text>
    </g>

    <g transform="translate(584 454) rotate(6)">
      <rect x="-146" y="-92" width="292" height="184" rx="18" fill="#f8fbff" stroke="#93c5fd" stroke-width="4"/>
      <text x="0" y="-16" text-anchor="middle" font-family="Segoe UI, Arial, sans-serif" font-size="27" font-weight="800" fill="#1d4ed8">CLASS OF 2026</text>
      <text x="0" y="18" text-anchor="middle" font-family="Segoe UI, Arial, sans-serif" font-size="20" font-weight="700" fill="#1d4f73">Grad Napkins</text>
      <rect x="-70" y="38" width="140" height="28" rx="14" fill="#0f766e"/>
      <text x="0" y="58" text-anchor="middle" font-family="Segoe UI, Arial, sans-serif" font-size="14" font-weight="700" fill="#fff">ORDER NOW</text>
    </g>
  </g>
</svg>
