<svg xmlns="http://www.w3.org/2000/svg" viewBox="0 0 1920 1080" preserveAspectRatio="xMidYMid slice" role="img" aria-label="Northern Minnesota sky and lake background">
  <defs>
    <linearGradient id="sky" x1="0" y1="0" x2="0" y2="1">
      <stop offset="0%" stop-color="#cceef5"/>
      <stop offset="38%" stop-color="#a6dde3"/>
      <stop offset="72%" stop-color="#73a8bc"/>
      <stop offset="100%" stop-color="#2b5c79"/>
    </linearGradient>
    <linearGradient id="lake" x1="0" y1="0" x2="0" y2="1">
      <stop offset="0%" stop-color="#67c4da"/>
      <stop offset="100%" stop-color="#1f4f6a"/>
    </linearGradient>
    <filter id="blur" x="-20%" y="-20%" width="140%" height="140%">
      <feGaussianBlur stdDeviation="24"/>
    </filter>
  </defs>
  <rect width="1920" height="1080" fill="url(#sky)"/>
  <g filter="url(#blur)" opacity="0.36">
    <ellipse cx="300" cy="240" rx="280" ry="96" fill="#effcf6"/>
    <ellipse cx="980" cy="210" rx="410" ry="120" fill="#d9f99d"/>
    <ellipse cx="1610" cy="250" rx="260" ry="92" fill="#d1fae5"/>
    <ellipse cx="1260" cy="360" rx="520" ry="150" fill="#bfdbfe"/>
  </g>
  <circle cx="410" cy="168" r="96" fill="#f1f5b5" opacity="0.5"/>
  <path d="M0 640 C144 596, 310 608, 440 652 C590 704, 742 708, 910 664 C1086 618, 1268 612, 1428 650 C1596 690, 1760 694, 1920 650 L1920 1080 L0 1080 Z" fill="url(#lake)" opacity="0.56"/>
  <path d="M0 690 C174 650, 348 662, 520 704 C686 744, 856 754, 1038 722 C1200 694, 1364 692, 1528 722 C1698 754, 1806 756, 1920 738 L1920 1080 L0 1080 Z" fill="#75d1d6" opacity="0.16"/>
</svg>
