<svg xmlns="http://www.w3.org/2000/svg" viewBox="0 0 1920 1080" preserveAspectRatio="xMidYMid slice" role="img" aria-label="Foreground pine silhouettes and wooded shoreline">
  <path d="M0 820 C176 766, 356 770, 530 820 C714 876, 926 884, 1114 832 C1298 780, 1490 786, 1668 836 C1796 872, 1886 878, 1920 872 L1920 1080 L0 1080 Z" fill="#194735" opacity="0.86"/>
  <path d="M0 890 C164 852, 332 860, 526 914 C700 962, 934 970, 1124 930 C1308 892, 1490 896, 1678 938 C1788 962, 1868 970, 1920 966 L1920 1080 L0 1080 Z" fill="#102c21" opacity="0.95"/>
  <g fill="#143727">
    <path d="M42 890 l34 -58 l20 34 l-12 -2 l30 44 h-26 l10 40 h-36 l10 -40 h-26 l30 -44 l-12 2 z"/>
    <path d="M110 908 l44 -78 l26 44 l-14 -2 l40 58 h-34 l12 52 h-48 l12 -52 h-34 l40 -58 l-14 2 z"/>
    <path d="M210 900 l38 -66 l22 38 l-13 -2 l34 50 h-30 l11 46 h-42 l11 -46 h-30 l34 -50 l-13 2 z"/>
    <path d="M356 918 l30 -54 l18 30 l-10 -2 l27 40 h-24 l9 34 h-32 l9 -34 h-24 l27 -40 l-10 2 z"/>
    <path d="M1480 900 l38 -66 l22 38 l-13 -2 l34 50 h-30 l11 46 h-42 l11 -46 h-30 l34 -50 l-13 2 z"/>
    <path d="M1570 916 l32 -58 l19 32 l-11 -2 l28 42 h-25 l10 36 h-34 l10 -36 h-25 l28 -42 l-11 2 z"/>
    <path d="M1660 904 l42 -74 l24 42 l-13 -2 l38 56 h-32 l12 48 h-44 l12 -48 h-32 l38 -56 l-13 2 z"/>
    <path d="M1772 920 l30 -54 l18 30 l-10 -2 l27 40 h-24 l9 34 h-32 l9 -34 h-24 l27 -40 l-10 2 z"/>
  </g>
</svg>
