<svg xmlns="http://www.w3.org/2000/svg" viewBox="0 0 1920 1080" preserveAspectRatio="xMidYMid slice" role="img" aria-label="Midground small towns, fields, and shorelines">
  <defs>
    <linearGradient id="field" x1="0" y1="0" x2="1" y2="1">
      <stop offset="0%" stop-color="#7ecb96"/>
      <stop offset="100%" stop-color="#3d805a"/>
    </linearGradient>
  </defs>
  <path d="M0 720 C160 660, 320 660, 486 712 C656 766, 834 770, 1012 724 C1194 676, 1354 676, 1518 722 C1674 766, 1816 768, 1920 740 L1920 1080 L0 1080 Z" fill="#2f6f67" opacity="0.5"/>
  <path d="M0 788 C162 738, 334 742, 514 792 C692 842, 882 848, 1070 804 C1248 764, 1432 764, 1608 810 C1766 852, 1864 854, 1920 840 L1920 1080 L0 1080 Z" fill="url(#field)" opacity="0.55"/>
  <g opacity="0.92">
    <g transform="translate(258 566)">
      <rect x="0" y="156" width="228" height="90" rx="10" fill="#dff1f4"/>
      <polygon points="-10,164 112,78 236,164" fill="#2d657d"/>
      <rect x="92" y="188" width="40" height="58" fill="#2d657d"/>
      <rect x="26" y="184" width="38" height="30" fill="#a6d6df"/>
      <rect x="162" y="184" width="38" height="30" fill="#a6d6df"/>
      <path d="M-24 246 H256" stroke="#244e62" stroke-width="14" stroke-linecap="round" opacity="0.36"/>
    </g>
    <g transform="translate(824 526)">
      <rect x="0" y="198" width="260" height="54" fill="#d6efd2"/>
      <rect x="174" y="62" width="26" height="136" fill="#d6efd2"/>
      <rect x="150" y="44" width="76" height="26" rx="13" fill="#b8d8b4"/>
      <ellipse cx="188" cy="58" rx="40" ry="16" fill="#cae9c6"/>
      <path d="M0 198 C44 148, 90 148, 132 198 Z" fill="#5a8c51"/>
      <path d="M80 198 C130 130, 198 130, 246 198 Z" fill="#4f7d46"/>
      <path d="M126 198 C176 148, 224 150, 260 198 Z" fill="#699d60"/>
      <path d="M-26 252 H290" stroke="#244e62" stroke-width="14" stroke-linecap="round" opacity="0.3"/>
    </g>
    <g transform="translate(1320 554)">
      <path d="M0 154 C42 126, 98 126, 140 154 C184 184, 250 190, 312 162 L312 240 L0 240 Z" fill="#c0e2bb"/>
      <path d="M46 138 l46 -28 l60 36 l46 -28 l70 36" fill="none" stroke="#38734d" stroke-width="10" stroke-linecap="round" stroke-linejoin="round"/>
      <path d="M18 240 H286" stroke="#295467" stroke-width="14" stroke-linecap="round" opacity="0.32"/>
    </g>
  </g>
</svg>
