<svg xmlns="http://www.w3.org/2000/svg" viewBox="0 0 980 220" role="img" aria-labelledby="title desc">
  <title id="title">Wadena County DAC logo</title>
  <desc id="desc">A bold scenic logo with northern Minnesota blue and green colors, lake-and-sky forms, and pine trees above the Wadena County DAC name.</desc>
  <defs>
    <linearGradient id="northSky" x1="0" y1="0" x2="1" y2="1">
      <stop offset="0%" stop-color="#8fd3e0"/>
      <stop offset="52%" stop-color="#38bdf8"/>
      <stop offset="100%" stop-color="#0f766e"/>
    </linearGradient>
    <linearGradient id="ridge" x1="0" y1="0" x2="0" y2="1">
      <stop offset="0%" stop-color="#1d4f73"/>
      <stop offset="100%" stop-color="#0f172a"/>
    </linearGradient>
    <filter id="soft" x="-20%" y="-20%" width="140%" height="140%">
      <feGaussianBlur stdDeviation="6"/>
    </filter>
  </defs>

  <g transform="translate(16 16)">
    <rect x="0" y="0" width="188" height="188" rx="44" fill="url(#northSky)"/>
    <circle cx="94" cy="68" r="34" fill="#d9f99d" opacity="0.72"/>
    <path d="M12 144 C34 126, 56 116, 84 124 C110 132, 132 132, 176 112 L176 188 L12 188 Z" fill="#67e8f9" opacity="0.36"/>
    <path d="M12 162 C38 140, 68 134, 98 146 C126 158, 152 154, 176 140 L176 188 L12 188 Z" fill="#0f766e" opacity="0.5"/>
    <path d="M12 172 C36 154, 70 150, 98 162 C124 172, 152 170, 176 160 L176 188 L12 188 Z" fill="url(#ridge)"/>
    <g fill="#14532d" opacity="0.95">
      <path d="M42 160 l12 -20 l8 13 l-5 -1 l11 16 h-11 l5 16 h-15 l5 -16 h-11 l11 -16 l-5 1 z"/>
      <path d="M78 156 l14 -25 l9 16 l-5 -1 l12 18 h-12 l5 18 h-16 l5 -18 h-12 l12 -18 l-5 1 z"/>
      <path d="M118 160 l12 -22 l8 14 l-4 -1 l11 17 h-11 l4 15 h-14 l4 -15 h-11 l11 -17 l-4 1 z"/>
      <path d="M148 158 l11 -18 l7 12 l-4 -1 l9 14 h-9 l4 13 h-13 l4 -13 h-9 l9 -14 l-4 1 z"/>
    </g>
    <path d="M40 38 C66 20, 120 18, 148 36" fill="none" stroke="#fff" stroke-opacity="0.35" stroke-width="8" stroke-linecap="round" filter="url(#soft)"/>
  </g>

  <g font-family="Segoe UI, Tahoma, Geneva, Verdana, sans-serif" fill="#f8fafc" transform="translate(228 72)">
    <text x="0" y="54" font-size="62" font-weight="800" letter-spacing="1">WADENA COUNTY</text>
    <text x="2" y="122" font-size="74" font-weight="900" letter-spacing="3">DAC</text>
    <rect x="2" y="134" width="620" height="7" rx="4" fill="#5eead4" opacity="0.95"/>
    <text x="4" y="174" font-size="26" font-weight="600" fill="#dbeafe" letter-spacing="2">WHERE CHALLENGES MEET OPPORTUNITIES</text>
  </g>
</svg>
