<svg xmlns="http://www.w3.org/2000/svg" viewBox="0 0 980 220" role="img" aria-labelledby="title desc">
  <title id="title">Wadena County DAC logo</title>
  <desc id="desc">A bold scenic logo with sunset colors and mountain forms above the Wadena County DAC name.</desc>
  <defs>
    <linearGradient id="sunset" x1="0" y1="0" x2="1" y2="1">
      <stop offset="0%" stop-color="#f97316"/>
      <stop offset="52%" stop-color="#fb7185"/>
      <stop offset="100%" stop-color="#7c3aed"/>
    </linearGradient>
    <linearGradient id="ridge" x1="0" y1="0" x2="0" y2="1">
      <stop offset="0%" stop-color="#1e3a8a"/>
      <stop offset="100%" stop-color="#0f172a"/>
    </linearGradient>
    <filter id="soft" x="-20%" y="-20%" width="140%" height="140%">
      <feGaussianBlur stdDeviation="6"/>
    </filter>
  </defs>

  <g transform="translate(16 16)">
    <rect x="0" y="0" width="188" height="188" rx="44" fill="url(#sunset)"/>
    <circle cx="94" cy="72" r="36" fill="#fde68a" opacity="0.9"/>
    <path d="M12 146 C34 126, 56 116, 84 124 C110 132, 132 132, 176 112 L176 188 L12 188 Z" fill="#fb923c" opacity="0.6"/>
    <path d="M12 164 C38 140, 68 134, 98 146 C126 158, 152 154, 176 140 L176 188 L12 188 Z" fill="#7c2d12" opacity="0.55"/>
    <path d="M12 172 C36 154, 70 150, 98 162 C124 172, 152 170, 176 160 L176 188 L12 188 Z" fill="url(#ridge)"/>
    <path d="M40 38 C66 20, 120 18, 148 36" fill="none" stroke="#fff" stroke-opacity="0.35" stroke-width="8" stroke-linecap="round" filter="url(#soft)"/>
  </g>

  <g font-family="Segoe UI, Tahoma, Geneva, Verdana, sans-serif" fill="#f8fafc" transform="translate(228 72)">
    <text x="0" y="54" font-size="62" font-weight="800" letter-spacing="1">WADENA COUNTY</text>
    <text x="2" y="122" font-size="74" font-weight="900" letter-spacing="3">DAC</text>
    <rect x="2" y="134" width="620" height="7" rx="4" fill="#fb923c" opacity="0.9"/>
    <text x="4" y="174" font-size="26" font-weight="600" fill="#cbd5e1" letter-spacing="2">WHERE CHALLENGES MEET OPPORTUNITIES</text>
  </g>
</svg>
